<?xml version="1.0" standalone="no"?><!DOCTYPE svg PUBLIC "-//W3C//DTD SVG 1.1//EN" "http://www.w3.org/Graphics/SVG/1.1/DTD/svg11.dtd"><svg t="1559905384472" class="icon" style="" viewBox="0 0 1024 1024" version="1.1" xmlns="http://www.w3.org/2000/svg" p-id="2216" xmlns:xlink="http://www.w3.org/1999/xlink" width="200" height="200"><defs><style type="text/css"></style></defs><path d="M886 154H138c-40.7 0-73.6 33-73.6 73.6v568.8c0 40.7 33 73.6 73.6 73.6h748c40.7 0 73.6-33 73.6-73.6V227.6c0-40.6-33-73.6-73.6-73.6zM604.3 280.9c40.7 0 73.7 33 73.7 73.7s-33 73.7-73.7 73.7-73.7-33-73.7-73.7 33-73.7 73.7-73.7zM137.7 772.1S198 420.5 338.2 420.5c137.4 0 172.4 245.9 269.1 245.9 61 0 54.6-111 151.4-111 69.4 0 113.5 216.7 113.5 216.7H137.7z" p-id="2217" fill="#777777"></path></svg>